<svg width="512" height="512" viewBox="0 0 512 512" fill="none" xmlns="http://www.w3.org/2000/svg" role="img" aria-labelledby="title desc">
  <title id="title">GL-Orbit Soft Heart Orbit logo</title>
  <desc id="desc">A soft coral heart with a lavender orbit ring and a small mint satellite dot.</desc>
  <defs>
    <linearGradient id="bg" x1="96" y1="64" x2="432" y2="448" gradientUnits="userSpaceOnUse">
      <stop stop-color="#FFF5F7"/>
      <stop offset="0.56" stop-color="#F4ECFF"/>
      <stop offset="1" stop-color="#ECFDF5"/>
    </linearGradient>
    <linearGradient id="heart" x1="168" y1="152" x2="348" y2="352" gradientUnits="userSpaceOnUse">
      <stop stop-color="#FF8DB4"/>
      <stop offset="1" stop-color="#FF6B9D"/>
    </linearGradient>
    <linearGradient id="orbit" x1="98" y1="178" x2="426" y2="334" gradientUnits="userSpaceOnUse">
      <stop stop-color="#8B5CF6" stop-opacity="0.22"/>
      <stop offset="0.45" stop-color="#C4B5FD"/>
      <stop offset="1" stop-color="#6EE7B7" stop-opacity="0.86"/>
    </linearGradient>
    <filter id="softShadow" x="82" y="78" width="356" height="356" filterUnits="userSpaceOnUse" color-interpolation-filters="sRGB">
      <feDropShadow dx="0" dy="18" stdDeviation="22" flood-color="#8B5CF6" flood-opacity="0.18"/>
      <feDropShadow dx="0" dy="8" stdDeviation="12" flood-color="#FF6B9D" flood-opacity="0.14"/>
    </filter>
  </defs>
  <rect x="48" y="48" width="416" height="416" rx="112" fill="url(#bg)"/>
  <path d="M108 274C136 192 212 146 292 158C350 167 396 202 414 250" stroke="url(#orbit)" stroke-width="18" stroke-linecap="round"/>
  <path d="M404 238C378 318 302 366 221 354C165 345 120 311 100 265" stroke="url(#orbit)" stroke-width="18" stroke-linecap="round" opacity="0.72"/>
  <g filter="url(#softShadow)">
    <path d="M256 356C247 346 214 318 187 292C153 259 136 232 136 201C136 163 164 136 202 136C225 136 244 147 256 165C268 147 287 136 310 136C348 136 376 163 376 201C376 232 359 259 325 292C298 318 265 346 256 356Z" fill="url(#heart)"/>
    <path d="M256 356C247 346 214 318 187 292C153 259 136 232 136 201C136 163 164 136 202 136C225 136 244 147 256 165C268 147 287 136 310 136C348 136 376 163 376 201C376 232 359 259 325 292C298 318 265 346 256 356Z" stroke="#FFFFFF" stroke-opacity="0.88" stroke-width="10" stroke-linejoin="round"/>
  </g>
  <circle cx="404" cy="238" r="20" fill="#6EE7B7" stroke="#FFFFFF" stroke-width="8"/>
  <circle cx="166" cy="154" r="8" fill="#FFB8D0" opacity="0.88"/>
  <circle cx="356" cy="356" r="7" fill="#C4B5FD" opacity="0.72"/>
</svg>
